<?xml version="1.0" standalone="no"?>
<!DOCTYPE svg PUBLIC "-//W3C//DTD SVG 20010904//EN"
 "http://www.w3.org/TR/2001/REC-SVG-20010904/DTD/svg10.dtd">
<svg version="1.0" xmlns="http://www.w3.org/2000/svg"
 width="345.000000pt" height="613.000000pt" viewBox="0 0 345.000000 613.000000"
 preserveAspectRatio="xMidYMid meet">

<g transform="translate(0.000000,613.000000) scale(0.100000,-0.100000)"
fill="#000000" stroke="none">
<path d="M0 6039 c0 -90 0 -91 22 -84 37 11 107 25 198 40 133 23 202 40 246
63 34 17 172 46 309 65 17 2 -151 5 -372 6 l-403 1 0 -91z"/>
<path d="M2930 6120 c20 -13 47 -13 55 0 4 6 -9 10 -32 10 -28 0 -34 -3 -23
-10z"/>
<path d="M2444 6087 c-8 -9 -7 -16 2 -25 15 -14 34 -16 34 -3 0 5 15 12 33 16
28 6 30 8 12 15 -30 13 -68 11 -81 -3z"/>
<path d="M3315 6081 c25 -6 27 -8 11 -14 -13 -5 -17 -13 -12 -30 4 -12 9 -30
11 -41 6 -25 3 -24 65 -27 l55 -3 3 62 3 62 -83 -1 c-53 -1 -72 -4 -53 -8z"/>
<path d="M787 6004 c-35 -11 -10 -29 43 -32 65 -4 107 5 93 19 -12 12 -109 20
-136 13z"/>
<path d="M1795 5920 c-4 -6 5 -10 20 -10 15 0 24 4 20 10 -3 6 -12 10 -20 10
-8 0 -17 -4 -20 -10z"/>
<path d="M2912 5840 c-12 -20 -25 -30 -42 -30 -37 -1 -60 -23 -65 -62 -4 -32
-2 -36 38 -56 85 -42 94 -44 101 -16 4 14 4 29 0 35 -3 6 -3 22 1 36 12 48 25
8 30 -91 2 -54 10 -105 16 -112 13 -15 57 -18 77 -6 10 7 10 15 2 36 -15 40
-13 73 5 73 8 0 15 -4 15 -9 0 -4 6 -8 14 -8 8 0 16 -5 18 -10 3 -10 40 -14
241 -26 l87 -5 0 51 c0 28 -4 49 -9 46 -5 -4 -41 1 -81 9 -69 15 -224 14 -292
-1 -21 -5 -28 -2 -28 8 0 8 -12 37 -26 64 -62 118 -73 125 -102 74z"/>
<path d="M13 5824 c-7 -3 -13 -17 -13 -30 0 -21 4 -24 40 -24 22 0 40 3 40 8
0 4 42 6 92 4 78 -2 90 -1 73 10 -11 7 -49 15 -85 19 -36 3 -81 9 -100 12 -19
3 -41 4 -47 1z"/>
<path d="M2509 5614 c-12 -14 -11 -16 5 -13 11 2 21 10 24 17 5 17 -13 15 -29
-4z"/>
<path d="M2340 5555 c0 -17 -12 -33 -38 -52 -79 -58 -122 -97 -122 -110 0 -18
16 -16 78 7 l53 20 48 -46 c31 -30 47 -53 44 -64 -2 -9 3 -22 12 -30 13 -11
19 -9 40 10 19 18 25 34 25 67 l0 43 54 0 c30 0 58 -4 61 -10 3 -5 19 -10 34
-10 16 0 41 -10 57 -22 15 -13 38 -21 50 -20 37 5 35 -13 -6 -44 -21 -16 -43
-39 -49 -51 -6 -13 -17 -23 -25 -23 -8 0 -16 -6 -19 -12 -4 -10 -7 -10 -18 0
-16 14 -85 16 -94 2 -3 -5 2 -10 12 -10 10 0 31 -7 47 -15 16 -9 66 -18 110
-21 44 -3 85 -8 91 -12 5 -3 28 -9 49 -12 22 -3 41 -11 44 -17 5 -16 -127 -18
-178 -2 -19 5 -53 10 -75 10 -40 0 -145 43 -145 60 0 5 -4 9 -10 9 -5 0 -10
-6 -10 -13 0 -26 -46 -42 -135 -47 l-90 -5 55 -19 c68 -23 82 -35 52 -42 -25
-7 -27 -15 -10 -32 9 -9 9 -12 0 -12 -7 0 -12 -5 -12 -11 0 -7 23 -10 67 -8
l66 4 13 -48 c16 -65 25 -73 105 -98 38 -12 69 -26 69 -30 0 -5 8 -9 18 -9 37
0 44 -15 25 -48 -14 -25 -34 -37 -91 -59 -52 -19 -76 -33 -82 -48 -9 -23 -55
-45 -94 -45 -12 0 -30 -6 -41 -14 -11 -7 -36 -17 -55 -21 -19 -4 -42 -13 -50
-20 -8 -7 -26 -15 -40 -18 -62 -13 -142 -49 -148 -65 -3 -11 92 -42 131 -42
13 0 41 -7 61 -15 20 -9 40 -14 44 -11 5 3 14 1 22 -5 13 -7 12 -9 -2 -9 -10
0 -18 -7 -18 -15 0 -9 9 -15 25 -15 14 0 25 -4 25 -10 0 -5 7 -10 15 -10 8 0
15 -7 15 -15 0 -11 11 -15 40 -15 33 0 40 -3 40 -20 0 -17 -7 -20 -40 -20 -44
0 -53 -17 -21 -37 11 -7 29 -30 42 -53 18 -31 29 -40 50 -40 15 0 40 -7 55
-15 16 -8 37 -15 47 -15 20 0 97 -37 97 -47 0 -3 -16 -21 -35 -40 -19 -19 -35
-41 -35 -49 0 -12 -8 -13 -37 -8 -21 4 -39 11 -41 15 -6 14 -32 10 -32 -5 0
-7 -11 -21 -25 -30 -22 -14 -25 -15 -25 -1 0 17 -18 19 -54 5 -17 -6 -26 -6
-26 0 0 6 -4 10 -10 10 -5 0 -9 -6 -7 -12 3 -16 -91 -24 -106 -9 -6 6 -25 11
-42 12 -16 0 -39 4 -50 8 -11 5 -25 4 -32 -1 -19 -15 9 -38 46 -38 17 0 45 -6
63 -14 18 -8 52 -20 76 -27 23 -7 47 -18 53 -26 6 -7 17 -13 24 -13 19 0 48
-47 32 -54 -8 -3 -4 -11 11 -25 13 -11 21 -25 17 -31 -3 -5 -39 -10 -78 -11
l-72 -1 44 -11 c45 -12 68 -37 34 -37 -39 0 -63 14 -82 46 -22 37 -42 46 -34
14 4 -14 0 -20 -11 -20 -9 0 -16 4 -16 9 0 12 -70 45 -95 45 -13 0 -19 -6 -17
-16 1 -9 -8 -25 -21 -35 l-24 -18 69 -23 c51 -17 73 -20 88 -12 15 8 34 3 86
-21 50 -22 76 -29 99 -25 24 5 36 1 51 -15 23 -25 77 -49 113 -49 14 0 32 -4
39 -9 22 -13 -46 -23 -71 -9 -12 6 -37 13 -57 14 -19 2 -36 8 -38 14 -2 5 -25
10 -51 10 -39 0 -53 5 -75 27 -23 23 -30 25 -44 15 -23 -16 -49 -28 -99 -42
l-42 -13 24 -18 c13 -11 30 -19 38 -19 20 0 35 -22 19 -28 -45 -15 27 -43 151
-59 20 -3 37 -10 37 -15 0 -6 -15 -8 -37 -4 -21 4 -72 11 -113 16 -41 6 -90
15 -107 21 -38 12 -53 6 -53 -22 0 -11 -4 -17 -10 -14 -5 3 -10 14 -10 23 0
23 -37 54 -58 49 -15 -3 -14 -5 3 -12 32 -14 52 -38 37 -43 -18 -6 4 -32 27
-32 9 0 33 -9 54 -20 20 -11 44 -20 52 -20 8 0 15 -7 15 -15 0 -8 -9 -15 -19
-15 -11 0 -22 -4 -26 -10 -3 -5 -11 -7 -19 -4 -7 3 -17 -4 -22 -15 -9 -19 -10
-19 -44 9 l-35 30 32 -11 c18 -6 30 -15 27 -20 -3 -5 0 -9 5 -9 12 0 14 14 5
48 -4 12 -13 22 -20 22 -8 0 -17 6 -20 14 -3 8 -12 17 -21 20 -11 4 -13 2 -10
-9 4 -8 2 -17 -4 -20 -5 -4 -8 -1 -7 6 2 7 -6 13 -16 14 -11 0 -22 7 -24 15
-4 12 -3 13 10 2 13 -10 18 -9 28 3 19 23 -3 44 -29 28 -16 -10 -19 -8 -25 19
-3 17 -6 45 -6 63 0 18 -18 95 -41 171 -40 136 -41 144 -46 327 -4 141 -9 187
-18 187 -7 0 -15 7 -19 15 -6 17 -52 20 -90 5 -14 -5 -26 -6 -26 -2 0 4 -11 8
-25 8 -14 1 -25 -2 -25 -7 0 -5 -7 -9 -15 -9 -20 0 -40 -49 -54 -130 -17 -96
-15 -110 24 -150 46 -47 120 -210 128 -280 4 -30 4 -92 0 -137 -5 -71 -9 -83
-24 -83 -10 0 -21 5 -24 10 -3 6 -12 10 -18 9 -9 0 -9 -2 1 -6 15 -6 16 -39 1
-48 -6 -4 -8 -14 -5 -22 4 -10 0 -14 -17 -11 -16 2 -21 9 -19 23 2 11 10 23
18 28 16 9 9 34 -11 34 -8 0 -12 -4 -9 -9 3 -4 0 -8 -6 -8 -6 0 -9 -4 -6 -9
10 -15 -26 -22 -38 -8 -6 7 -24 21 -39 31 -15 9 -25 21 -22 26 4 6 -1 10 -9
10 -8 0 -31 14 -50 31 -34 29 -36 30 -65 14 -17 -8 -31 -23 -31 -32 0 -13 -8
-9 -33 15 -21 20 -43 32 -61 32 -17 0 -25 -4 -21 -11 4 -6 13 -8 21 -5 8 3 14
2 14 -3 0 -5 15 -19 34 -32 l34 -23 -20 -27 -20 -27 -47 20 c-26 10 -48 26
-48 34 0 8 5 14 11 14 6 0 3 7 -6 16 -10 10 -33 17 -57 17 -35 0 -40 2 -38 21
2 17 -3 20 -22 18 -20 -2 -22 0 -11 13 10 13 9 15 -8 15 -12 0 -24 -5 -27 -10
-4 -6 -11 -8 -16 -4 -6 3 -4 11 4 17 18 15 17 79 -1 85 -7 2 -16 -5 -19 -17
-3 -12 -9 -21 -13 -19 -51 19 -180 97 -181 108 0 8 -5 2 -10 -14 -6 -20 -4
-34 4 -44 9 -11 3 -10 -23 3 -19 10 -29 20 -23 22 9 3 10 10 3 24 -9 15 -7 19
5 19 27 0 6 20 -43 41 -24 11 -64 33 -88 49 -24 16 -51 27 -59 24 -16 -6 -11
-24 6 -24 6 0 7 5 3 12 -4 6 -3 8 4 4 15 -9 44 -68 29 -59 -42 24 -77 58 -73
70 3 7 2 13 -2 13 -4 0 -18 10 -32 21 l-25 21 37 -20 c21 -12 46 -18 58 -15
18 5 11 12 -42 44 -67 41 -124 61 -247 85 -74 15 -78 15 -151 -9 -41 -14 -79
-32 -84 -40 -12 -18 8 -47 33 -47 9 0 63 -23 121 -51 58 -28 131 -59 162 -69
73 -23 171 -78 228 -128 25 -21 63 -45 84 -53 25 -9 46 -26 59 -47 11 -18 43
-48 72 -68 37 -24 56 -44 60 -63 5 -22 23 -36 103 -77 91 -46 97 -51 94 -78
-2 -15 4 -36 12 -45 15 -16 13 -21 -27 -58 -52 -49 -132 -177 -123 -198 3 -8
15 -15 26 -15 23 0 80 27 80 38 1 4 9 18 20 31 19 21 23 22 67 12 27 -6 64
-12 85 -13 33 -2 37 -5 42 -37 3 -20 6 -48 6 -62 0 -14 9 -36 20 -49 25 -29
25 -66 1 -116 -17 -34 -18 -41 -5 -50 21 -16 17 -24 -12 -24 -20 0 -25 -4 -22
-22 3 -26 14 -25 -138 -13 -78 7 -92 5 -97 -8 -5 -13 -1 -15 22 -11 16 4 32 1
35 -5 7 -11 -6 -15 -32 -12 -10 2 -11 -2 -4 -15 5 -9 7 -25 5 -34 -3 -10 0
-27 6 -39 9 -16 9 -20 -1 -16 -7 2 -40 6 -73 9 -33 2 -72 9 -86 14 -35 14 -46
2 -18 -19 l22 -17 -33 -7 -34 -7 25 -14 24 -13 -25 -1 c-24 0 -24 -1 8 -21 17
-12 32 -23 32 -24 0 -2 -31 -1 -70 2 -45 4 -70 2 -70 -4 0 -6 11 -14 25 -17
36 -9 32 -36 -4 -36 -17 0 -32 4 -35 9 -3 5 -16 7 -27 4 -21 -6 -21 -7 5 -20
33 -17 25 -35 -12 -27 -26 6 -26 6 -7 -9 26 -22 5 -22 -54 -1 -24 8 -46 12
-49 10 -5 -6 42 -26 62 -26 7 0 21 -9 31 -20 10 -11 24 -20 30 -20 7 0 16 -7
19 -16 5 -13 1 -14 -27 -9 -17 4 -38 14 -44 23 -7 8 -16 12 -20 8 -4 -4 3 -16
17 -26 23 -18 23 -20 5 -21 -27 -1 30 -27 110 -50 33 -9 75 -21 93 -27 18 -6
30 -7 27 -2 -3 5 -24 15 -45 21 -22 7 -40 16 -40 21 0 10 -4 11 53 -7 26 -8
45 -10 42 -5 -4 6 11 10 34 10 22 0 42 -4 45 -9 7 -11 123 -32 151 -27 11 2
23 -1 26 -6 3 -5 30 -15 60 -23 30 -7 79 -20 109 -28 52 -15 71 -15 57 -1 -4
4 -17 8 -29 9 -13 1 -27 3 -32 4 -4 0 -6 7 -3 15 7 17 -18 41 -32 32 -5 -4
-12 -2 -16 4 -4 6 11 10 39 10 33 0 48 -5 59 -20 8 -11 16 -18 19 -15 3 3 22
-1 44 -9 21 -8 33 -15 27 -15 -21 -1 -15 -18 8 -24 11 -3 23 -15 26 -26 3 -11
16 -22 32 -26 14 -3 40 -17 56 -30 17 -14 22 -22 13 -19 -25 9 -22 -5 6 -27
17 -14 22 -25 18 -45 -5 -28 -7 -28 -117 -9 -21 3 -18 1 11 -9 56 -19 118 -51
133 -70 12 -14 10 -16 -12 -16 -28 0 -45 -16 -25 -23 10 -3 10 -8 2 -16 -13
-14 -84 -5 -84 11 0 6 -14 8 -36 3 -40 -7 -84 -25 -84 -34 0 -8 51 -31 69 -31
13 0 76 -21 141 -47 9 -4 0 -9 -24 -15 -22 -4 -42 -5 -45 -1 -3 5 -23 9 -44
10 -21 1 -45 7 -53 14 -8 6 -14 8 -14 3 1 -8 44 -44 80 -64 8 -5 11 -12 7 -16
-4 -4 -13 -2 -19 4 -7 7 -22 12 -34 12 -12 0 -27 7 -34 15 -7 8 -23 15 -35 15
-12 0 -28 7 -35 15 -6 7 -33 17 -58 21 -26 3 -54 12 -62 19 -28 22 -40 27 -34
12 4 -11 -1 -13 -23 -9 -15 2 -34 9 -41 15 -7 5 -15 7 -18 4 -3 -3 -29 3 -57
13 -52 18 -69 18 -51 0 19 -19 86 -49 99 -44 7 3 16 0 20 -5 3 -6 10 -9 15 -6
4 3 13 -2 20 -10 7 -8 21 -15 33 -15 11 0 34 -9 51 -19 23 -15 46 -19 89 -17
33 2 52 -1 45 -5 -10 -7 -8 -12 7 -23 11 -7 33 -26 48 -40 15 -14 34 -26 41
-26 8 0 19 -6 25 -14 16 -19 -7 -36 -34 -25 -38 15 -45 11 -30 -18 14 -27 11
-49 -4 -25 -4 7 -21 10 -41 8 -26 -3 -39 1 -53 17 -9 11 -27 21 -39 22 -12 1
-24 7 -26 13 -2 7 -14 12 -27 12 -34 0 -56 11 -48 24 4 7 1 7 -8 -1 -13 -10
-27 -10 -70 3 -107 30 -153 38 -156 27 -3 -8 -14 -8 -36 -2 -18 5 -36 9 -42 9
-15 -1 27 -23 45 -25 30 -2 170 -77 163 -88 -4 -6 0 -8 10 -4 10 3 17 2 17 -3
0 -6 4 -10 10 -10 5 0 20 -11 33 -24 13 -12 40 -26 60 -30 42 -8 107 -43 107
-58 0 -13 19 -30 53 -47 15 -8 27 -20 27 -27 0 -7 6 -15 13 -18 34 -16 -130
21 -242 55 -44 14 -68 16 -75 9 -16 -16 -48 -12 -85 11 -18 11 -41 19 -50 17
-11 -3 -6 -8 17 -18 17 -8 32 -18 32 -22 0 -5 12 -8 27 -8 26 0 26 -1 11 -17
-14 -14 -22 -15 -43 -5 -14 7 -35 12 -45 12 -11 0 -20 5 -20 10 0 6 -11 10
-24 10 -14 0 -28 5 -31 10 -3 5 -20 10 -37 10 -32 0 -101 36 -94 49 9 13 88 2
100 -14 7 -9 27 -18 46 -20 30 -3 35 0 36 20 1 18 -2 21 -19 17 -13 -3 -18 -1
-13 6 3 6 -3 14 -16 18 -13 4 -24 2 -26 -5 -2 -6 -9 -8 -15 -4 -7 4 -36 9 -65
10 -30 1 -60 7 -67 13 -9 8 -15 8 -20 0 -3 -5 -3 -10 0 -10 3 0 0 -6 -7 -14
-10 -12 -15 -12 -23 -2 -11 13 -49 36 -61 36 -4 0 1 -9 11 -20 17 -18 17 -20
2 -14 -10 3 -17 1 -17 -5 0 -6 9 -11 19 -11 11 0 23 -4 26 -10 3 -5 19 -7 35
-3 23 4 30 2 30 -11 0 -11 9 -16 30 -16 17 0 30 -4 30 -10 0 -5 9 -10 20 -10
11 0 28 -9 37 -20 10 -11 33 -23 53 -26 19 -4 47 -13 62 -20 15 -8 36 -14 46
-14 11 0 46 -12 78 -27 33 -15 66 -28 75 -29 22 -2 119 -55 119 -66 0 -4 7 -8
15 -8 8 0 15 -5 15 -10 0 -6 10 -15 23 -20 12 -5 16 -9 10 -9 -18 -1 -16 -21
2 -21 8 0 15 -4 15 -9 0 -5 -21 -7 -47 -5 -27 2 -54 3 -61 4 -7 0 -11 4 -8 9
3 5 -21 14 -53 19 -33 6 -79 19 -103 30 -68 30 -183 58 -218 54 -8 -1 -27 3
-42 8 -17 5 -30 5 -33 -1 -4 -5 3 -9 15 -9 12 0 31 -5 42 -11 15 -8 22 -8 28
0 5 9 10 8 20 -4 7 -8 23 -15 36 -15 12 0 26 -5 29 -10 3 -5 17 -10 29 -10 13
0 29 -7 36 -15 7 -9 21 -13 31 -10 11 4 26 -2 37 -13 15 -15 24 -17 38 -9 13
7 19 7 22 -1 2 -7 13 -12 24 -12 14 0 18 -5 14 -15 -7 -19 28 -38 54 -30 16 5
20 2 20 -16 0 -17 -3 -19 -13 -10 -18 14 -38 -5 -29 -28 5 -14 4 -14 -11 -2
-9 7 -17 10 -17 6 0 -4 -6 -2 -13 4 -8 6 -16 8 -20 5 -3 -3 -17 2 -31 11 -15
10 -48 18 -79 18 -28 1 -44 3 -35 5 10 2 15 9 11 18 -6 16 -33 19 -33 4 0 -5
-7 -10 -15 -10 -20 0 -19 17 1 28 18 10 10 36 -9 29 -7 -2 -18 2 -25 10 -7 7
-21 13 -30 13 -14 0 -14 -2 2 -13 20 -15 11 -51 -11 -43 -8 3 -24 6 -34 6 -11
0 -17 5 -14 10 7 11 -15 13 -39 4 -9 -3 -13 -10 -10 -15 3 -5 0 -9 -6 -9 -24
0 2 -18 35 -24 20 -4 39 -15 42 -24 3 -9 15 -27 26 -39 30 -34 14 -38 -39 -13
-37 19 -50 21 -65 12 -15 -10 -32 -6 -91 22 -40 18 -91 40 -113 49 -111 43
-124 47 -131 35 -5 -7 -10 -3 -16 11 -11 30 -34 24 -58 -15 -18 -28 -18 -32
-4 -50 11 -13 17 -15 20 -6 7 14 50 16 59 2 3 -5 1 -10 -5 -10 -6 0 -8 -5 -5
-11 4 -6 20 -8 38 -4 22 4 28 3 18 -3 -7 -5 -10 -15 -7 -21 4 -6 2 -11 -4 -11
-6 0 -8 -5 -4 -11 7 -12 -20 -8 -60 7 -9 3 -16 2 -16 -4 0 -5 7 -12 15 -16 19
-7 20 -26 1 -26 -8 0 -16 -5 -18 -12 -2 -6 -10 -8 -16 -4 -17 10 -15 26 3 20
8 -4 15 -3 15 1 0 15 -36 34 -64 35 -22 0 -27 4 -22 16 5 13 2 15 -14 11 -15
-4 -31 4 -51 24 -41 40 -99 63 -99 39 0 -5 6 -10 14 -10 8 0 16 -7 20 -15 3
-8 0 -15 -7 -15 -18 0 -43 32 -39 52 4 21 -37 36 -49 17 -6 -10 -2 -17 11 -23
23 -10 27 -36 6 -36 -8 0 -23 -3 -33 -7 -10 -3 -15 -2 -10 2 9 11 -22 45 -41
45 -8 0 -37 13 -63 30 -50 30 -67 23 -28 -11 18 -16 20 -21 8 -35 -11 -13 -10
-17 2 -25 8 -5 19 -9 26 -9 6 0 13 -6 16 -12 3 -9 10 -6 22 10 19 25 35 29 35
7 0 -8 -4 -15 -10 -15 -5 0 -10 -4 -10 -9 0 -5 20 -14 45 -20 25 -6 54 -20 66
-32 11 -11 23 -17 28 -15 9 6 58 -9 117 -35 23 -11 46 -19 51 -19 6 0 24 -13
39 -29 16 -15 36 -31 44 -34 10 -4 8 -6 -7 -6 -12 -1 -37 5 -55 13 -121 53
-146 64 -175 76 -18 7 -33 16 -33 21 0 5 -9 9 -19 9 -11 0 -63 20 -117 46 -68
31 -100 42 -107 35 -8 -8 -7 -11 2 -11 11 0 11 -3 0 -16 -13 -16 -8 -23 26
-38 6 -3 4 -9 -5 -15 -8 -5 -18 -7 -22 -5 -4 3 -8 -8 -8 -25 0 -27 4 -31 36
-37 19 -3 48 -16 62 -28 15 -11 36 -26 46 -32 11 -6 22 -17 24 -24 3 -8 -5 -6
-21 7 -15 11 -42 24 -61 27 -19 4 -37 13 -40 21 -3 8 -15 15 -26 15 -20 0 -20
-5 -20 -405 l0 -405 1725 0 1725 0 0 479 c0 374 -3 480 -12 484 -10 4 -10 6 0
6 9 1 12 43 12 176 0 147 -2 177 -15 181 -8 4 -12 10 -9 15 3 5 10 7 15 4 6
-4 9 773 9 2069 l-1 2076 -27 6 c-15 3 -42 10 -61 15 -41 10 -188 -16 -213
-38 -22 -20 -95 -9 -125 20 l-23 20 -26 -24 -25 -24 -17 21 c-24 30 -45 39
-147 64 -71 17 -104 21 -155 15 -111 -12 -250 -8 -250 8 0 4 -9 7 -20 7 -15 0
-20 -7 -20 -25z m1078 -258 c2 -11 -3 -17 -16 -17 -20 0 -36 23 -24 34 11 12
37 1 40 -17z m-903 -918 c15 -15 -70 -10 -106 6 -33 14 -33 14 31 8 36 -3 69
-9 75 -14z m125 -19 c0 -5 -4 -10 -9 -10 -6 0 -13 5 -16 10 -3 6 1 10 9 10 9
0 16 -4 16 -10z m-56 -71 c-11 -18 -24 -8 -24 19 1 26 1 26 15 8 8 -10 12 -23
9 -27z m-8 -69 c8 0 14 -5 14 -11 0 -7 -9 -9 -22 -5 -13 3 -32 6 -43 6 -18 1
-18 2 5 21 22 19 25 19 28 5 2 -9 10 -16 18 -16z m224 -140 c0 -5 -18 -10 -40
-10 -22 0 -40 5 -40 10 0 6 18 10 40 10 22 0 40 -4 40 -10z m-2417 -97 c-7 -2
-19 -2 -25 0 -7 3 -2 5 12 5 14 0 19 -2 13 -5z m1797 -222 c0 -6 -4 -13 -10
-16 -5 -3 -10 1 -10 9 0 9 5 16 10 16 6 0 10 -4 10 -9z m-1091 -175 c10 -12 8
-13 -9 -9 -25 7 -37 23 -17 23 8 0 20 -6 26 -14z m1631 -40 c0 -9 -7 -12 -20
-9 -11 3 -20 9 -20 14 0 5 9 9 20 9 11 0 20 -6 20 -14z m50 -11 c0 -8 -9 -15
-20 -15 -11 0 -20 7 -20 15 0 8 9 15 20 15 11 0 20 -7 20 -15z m142 -31 c6 -4
6 -10 0 -16 -11 -11 -88 7 -98 24 -5 8 6 9 40 5 26 -4 52 -10 58 -13z m148
-24 c0 -5 -4 -10 -10 -10 -5 0 -10 5 -10 10 0 6 5 10 10 10 6 0 10 -4 10 -10z
m-504 -15 c4 -8 14 -15 24 -15 11 0 22 -4 25 -10 3 -5 -3 -10 -14 -10 -33 0
-71 19 -71 35 0 19 29 20 36 0z m-366 -25 c-19 -13 -30 -13 -30 0 0 6 10 10
23 10 18 0 19 -2 7 -10z m-200 -25 c0 -3 -10 -10 -22 -16 -22 -9 -21 -9 5 -6
19 3 27 0 27 -11 0 -10 -7 -13 -25 -10 -19 4 -23 2 -15 -7 8 -10 -11 -14 -87
-17 -107 -5 -133 -2 -133 16 0 17 81 38 170 46 41 4 76 7 78 8 1 1 2 0 2 -3z
m37 -77 c-3 -8 -6 -5 -6 6 -1 11 2 17 5 13 3 -3 4 -12 1 -19z m506 15 c-7 -2
-19 -2 -25 0 -7 3 -2 5 12 5 14 0 19 -2 13 -5z m-535 -28 c-3 -3 -9 2 -12 12
-6 14 -5 15 5 6 7 -7 10 -15 7 -18z m-28 5 c0 -10 -65 -30 -95 -29 -11 1 5 9
35 19 30 10 56 18 58 19 1 1 2 -3 2 -9z m261 -17 c13 -17 13 -17 -5 -3 -18 14
-19 13 -13 -2 5 -13 0 -19 -17 -24 -18 -4 -22 -11 -19 -32 2 -15 0 -21 -3 -14
-3 6 -10 12 -15 12 -5 0 -4 -9 3 -20 7 -10 14 -17 17 -15 2 3 10 0 17 -5 6 -6
83 -35 170 -64 97 -33 168 -63 183 -77 14 -13 42 -38 63 -55 47 -40 127 -136
162 -196 15 -27 32 -48 38 -48 8 0 8 -3 3 -9 -15 -14 -62 -1 -88 24 -12 13
-42 31 -65 40 -23 10 -42 20 -42 24 0 13 -50 31 -85 31 -27 0 -35 4 -35 18 0
10 -19 33 -42 50 -64 47 -137 116 -108 101 14 -7 27 -14 30 -14 3 0 16 -6 30
-13 24 -13 24 -12 5 3 -11 9 -40 28 -65 42 -25 14 -69 41 -97 59 -29 19 -57
34 -62 34 -5 0 -14 6 -20 14 -8 10 -23 13 -44 9 -24 -3 -65 8 -157 45 -110 44
-126 48 -132 34 -6 -12 -7 -10 -5 8 1 19 7 24 22 21 32 -7 318 -2 324 6 3 3
-2 3 -11 0 -12 -4 -15 -2 -12 8 3 8 18 16 32 18 15 2 28 5 28 6 1 0 8 -7 15
-16z m-401 -13 c-13 -11 -24 -20 -25 -20 -1 0 -10 9 -20 20 -18 20 -17 20 25
20 l43 0 -23 -20z m50 -85 c13 -14 21 -25 18 -25 -2 0 -15 11 -28 25 -13 14
-21 25 -18 25 2 0 15 -11 28 -25z m565 4 c4 -6 5 -12 4 -14 -7 -7 -59 8 -59
16 0 13 47 11 55 -2z m345 -44 c0 -8 -6 -15 -14 -15 -8 0 -21 -9 -30 -21 l-14
-21 -5 23 c-3 16 -5 12 -6 -13 0 -23 -6 -38 -13 -38 -9 0 -8 -4 2 -10 8 -5 11
-10 5 -10 -7 0 -7 -3 0 -8 26 -19 72 -155 63 -183 -2 -7 -19 8 -37 34 -17 26
-29 47 -24 47 4 0 1 6 -5 12 -10 10 -15 10 -21 -1 -7 -10 -16 -4 -39 27 -16
23 -32 38 -36 35 -3 -3 -6 -2 -6 4 0 16 28 24 34 10 3 -7 4 -3 1 9 -8 30 22
81 63 109 41 28 82 33 82 10z m-852 -46 c-3 -8 -7 -3 -11 10 -4 17 -3 21 5 13
5 -5 8 -16 6 -23z m849 -146 c-3 -10 -5 -4 -5 12 0 17 2 24 5 18 2 -7 2 -21 0
-30z m332 -197 c10 -9 22 -16 27 -16 20 0 34 -17 28 -33 -8 -23 -16 -22 -67
13 -25 17 -53 30 -63 30 -11 0 -27 7 -37 15 -18 13 -17 14 5 17 33 5 87 -8
107 -26z m-253 -61 c-3 -8 -13 -14 -23 -14 -17 1 -17 2 0 6 9 2 17 14 18 26 0
12 3 16 6 9 3 -7 2 -19 -1 -27z m-779 3 c-3 -8 -6 -5 -6 6 -1 11 2 17 5 13 3
-3 4 -12 1 -19z m703 -8 c13 -8 13 -10 -2 -10 -9 0 -20 5 -23 10 -8 13 5 13
25 0z m490 -20 c0 -5 -9 -10 -21 -10 -11 0 -17 5 -14 10 3 6 13 10 21 10 8 0
14 -4 14 -10z m-315 -50 c28 -21 58 -47 69 -58 10 -12 24 -19 30 -15 6 3 8 3
4 -1 -4 -5 4 -20 18 -34 13 -15 24 -30 24 -35 0 -4 4 -6 9 -2 14 8 25 -15 14
-26 -7 -7 -23 7 -47 39 -21 27 -52 57 -69 67 -46 26 -92 66 -92 79 0 6 -9 11
-19 11 -11 0 -21 6 -23 13 -7 18 24 4 82 -38z m215 -122 c1 -7 3 -29 6 -48 4
-30 0 -40 -23 -60 -15 -14 -22 -18 -17 -10 14 19 24 110 13 110 -5 0 -9 5 -9
10 0 15 30 12 30 -2z m128 -24 c12 -4 22 -10 22 -15 0 -13 -32 -10 -60 6 -22
13 -23 14 -5 15 11 0 30 -3 43 -6z m-2453 -267 c7 -6 -2 -7 -25 -3 -19 3 -39
11 -44 16 -7 7 1 8 24 4 19 -4 40 -11 45 -17z m95 -7 c8 -5 11 -10 5 -10 -5 0
-17 5 -25 10 -8 5 -10 10 -5 10 6 0 17 -5 25 -10z m398 -56 c12 -4 22 -10 22
-14 0 -8 -58 4 -68 15 -7 7 17 6 46 -1z m987 -372 c-3 -3 -11 0 -18 7 -9 10
-8 11 6 5 10 -3 15 -9 12 -12z m-1040 -342 c3 -5 1 -10 -4 -10 -6 0 -11 5 -11
10 0 6 2 10 4 10 3 0 8 -4 11 -10z m240 -21 c5 -5 1 -9 -12 -9 -11 0 -27 7
-34 16 -12 15 -11 16 11 9 14 -4 29 -11 35 -16z m860 -69 c3 -6 -1 -7 -9 -4
-18 7 -21 14 -7 14 6 0 13 -4 16 -10z m-1127 -83 c38 5 42 4 42 -16 0 -12 6
-21 15 -21 8 0 15 -7 15 -16 0 -9 6 -14 13 -11 15 5 47 -10 47 -23 0 -15 -36
-12 -50 5 -7 8 -31 20 -54 25 -22 6 -52 16 -66 22 -14 6 -29 11 -34 9 -13 -3
-46 10 -46 18 0 4 10 13 23 18 16 8 26 7 37 -3 10 -8 30 -11 58 -7z m-1138
-277 c0 -5 -7 -10 -15 -10 -8 0 -15 5 -15 10 0 6 7 10 15 10 8 0 15 -4 15 -10z
m567 -37 l28 -26 -25 7 c-14 4 -31 8 -39 10 -19 4 -23 36 -6 36 8 0 27 -12 42
-27z m-507 -13 c0 -5 -2 -10 -4 -10 -3 0 -8 5 -11 10 -3 6 -1 10 4 10 6 0 11
-4 11 -10z m1150 -10 c0 -5 -4 -10 -10 -10 -5 0 -10 5 -10 10 0 6 5 10 10 10
6 0 10 -4 10 -10z m-495 -10 c3 -5 4 -10 1 -10 -2 0 -11 -3 -19 -6 -8 -3 -17
2 -20 10 -7 18 27 23 38 6z m-494 -38 c-7 -2 -18 1 -23 6 -8 8 -4 9 13 5 13
-4 18 -8 10 -11z m329 1 c8 -4 21 -5 28 -4 16 2 16 -16 0 -21 -13 -5 -92 22
-104 35 -8 7 50 0 76 -10z m633 -25 c15 -6 27 -14 27 -19 0 -13 -9 -11 -65 17
-39 19 -43 23 -20 19 17 -3 42 -11 58 -17z m-1213 -1 c41 -15 80 -39 80 -49 0
-13 -47 -9 -62 5 -7 6 -25 18 -40 26 -16 8 -28 18 -28 23 0 11 9 10 50 -5z
m737 -23 c-3 -3 -12 -4 -19 -1 -8 3 -5 6 6 6 11 1 17 -2 13 -5z m-567 -74 c0
-5 -2 -10 -4 -10 -3 0 -8 5 -11 10 -3 6 -1 10 4 10 6 0 11 -4 11 -10z m-24
-74 c16 -8 51 -24 78 -36 27 -11 46 -23 43 -27 -7 -6 -106 38 -141 63 -26 18
-17 18 20 0z"/>
<path d="M2035 3255 c26 -9 105 -12 105 -4 0 5 -26 9 -57 8 -32 0 -53 -2 -48
-4z"/>
<path d="M2255 3142 c6 -6 55 -31 110 -56 56 -25 115 -60 135 -79 19 -19 62
-54 95 -78 33 -24 66 -50 73 -56 7 -7 16 -13 19 -13 8 0 -24 38 -57 68 l-25
23 25 -12 c14 -6 32 -17 41 -23 8 -6 -3 5 -25 24 -23 19 -61 55 -86 79 -29 28
-61 48 -90 57 -25 7 -36 13 -25 13 17 1 17 3 5 11 -9 6 -18 6 -24 0 -16 -16
-26 -11 -19 8 5 14 3 15 -8 5 -16 -16 -33 -17 -23 -2 4 8 0 9 -15 4 -11 -3
-29 -1 -38 5 -15 9 -14 10 7 5 19 -5 22 -4 10 4 -8 6 -23 8 -32 5 -10 -3 -28
0 -40 7 -13 6 -19 7 -13 1z"/>
<path d="M2705 2870 c10 -11 20 -20 23 -20 3 0 -3 9 -13 20 -10 11 -20 20 -23
20 -3 0 3 -9 13 -20z"/>
<path d="M2695 3030 c-3 -6 1 -7 9 -4 18 7 21 14 7 14 -6 0 -13 -4 -16 -10z"/>
<path d="M2248 4933 c7 -3 16 -2 19 1 4 3 -2 6 -13 5 -11 0 -14 -3 -6 -6z"/>
<path d="M2065 4691 c-5 -10 -4 -16 3 -19 7 -2 12 -12 12 -22 0 -16 5 -17 48
-8 26 5 52 16 57 23 6 7 22 15 35 18 14 3 -4 4 -40 3 -36 -2 -72 -6 -82 -10
-11 -5 -17 -2 -20 11 -3 15 -5 16 -13 4z"/>
<path d="M1886 4601 c5 -5 19 -12 32 -16 16 -5 22 -2 22 9 0 11 -10 16 -32 16
-19 0 -28 -4 -22 -9z"/>
<path d="M1875 4570 l-40 -7 43 -2 c23 0 42 4 42 9 0 6 -1 9 -2 9 -2 -1 -21
-5 -43 -9z"/>
<path d="M548 4374 c-4 -3 13 -25 37 -48 53 -53 71 -109 80 -241 4 -55 9 -110
12 -123 6 -24 92 -94 132 -107 22 -7 21 -4 -10 39 -19 25 -39 45 -46 46 -25 0
-52 52 -62 123 -27 179 -34 208 -52 230 -10 14 -16 27 -13 29 4 5 -59 58 -69
58 -2 0 -6 -3 -9 -6z"/>
<path d="M2363 4300 c-14 -6 -24 -21 -29 -45 -7 -39 -6 -42 16 -45 43 -6 48
-1 47 50 -1 27 -4 50 -7 49 -3 0 -15 -4 -27 -9z"/>
<path d="M1077 4265 c-26 -20 -60 -53 -75 -74 -33 -45 -67 -129 -57 -139 10
-10 35 29 35 55 0 52 57 120 140 167 30 17 38 26 25 26 -11 0 -41 -16 -68 -35z"/>
<path d="M2240 4275 c0 -8 4 -15 9 -15 5 0 14 7 21 15 10 13 9 15 -9 15 -12 0
-21 -6 -21 -15z"/>
<path d="M1048 4203 c-28 -29 -41 -54 -54 -108 -10 -38 -19 -64 -22 -57 -3 9
-9 9 -23 1 -11 -5 -17 -14 -13 -20 3 -5 2 -15 -3 -22 -5 -7 -9 -19 -8 -27 1
-8 3 -33 3 -55 l2 -40 21 43 c12 24 31 47 43 52 19 7 17 9 -14 18 -33 10 -33
10 -7 11 15 1 27 7 27 14 2 67 13 94 56 135 24 24 44 47 44 52 0 5 9 12 20 15
29 9 24 25 -8 25 -19 0 -39 -12 -64 -37z m32 -10 c-8 -3 -24 -10 -35 -15 -20
-9 -20 -9 -1 6 11 9 27 16 35 15 14 0 14 -1 1 -6z"/>
<path d="M2560 4120 c0 -5 4 -10 9 -10 6 0 13 5 16 10 3 6 -1 10 -9 10 -9 0
-16 -4 -16 -10z"/>
<path d="M2537 4073 c-12 -11 -8 -23 8 -23 8 0 15 7 15 15 0 16 -12 20 -23 8z"/>
<path d="M2478 4038 c9 -9 15 -9 24 0 9 9 7 12 -12 12 -19 0 -21 -3 -12 -12z"/>
<path d="M887 3973 c-8 -21 -12 -42 -9 -47 3 -5 11 10 18 34 17 56 11 63 -9
13z"/>
<path d="M824 3902 c4 -6 20 -21 36 -32 25 -18 29 -19 23 -4 -4 12 -3 15 5 10
8 -5 12 1 12 16 -1 22 -1 22 -15 4 -14 -18 -15 -18 -41 -1 -14 9 -24 12 -20 7z"/>
<path d="M2340 3861 c0 -6 5 -13 10 -16 6 -3 10 1 10 9 0 9 -4 16 -10 16 -5 0
-10 -4 -10 -9z"/>
<path d="M942 3844 c-27 -19 -22 -29 18 -37 39 -8 40 -8 39 1 -1 4 -6 6 -12 4
-7 -2 -9 0 -5 4 4 4 3 13 -3 21 -18 21 6 15 26 -7 10 -11 20 -18 23 -15 9 8
-30 45 -47 45 -9 0 -27 -7 -39 -16z"/>
<path d="M2386 3841 c-3 -4 -1 -12 3 -19 5 -9 11 -9 26 1 17 13 17 14 -4 20
-11 3 -23 2 -25 -2z"/>
<path d="M900 3775 c0 -8 4 -15 10 -15 5 0 7 7 4 15 -4 8 -8 15 -10 15 -2 0
-4 -7 -4 -15z"/>
<path d="M2078 3733 c7 -3 16 -2 19 1 4 3 -2 6 -13 5 -11 0 -14 -3 -6 -6z"/>
<path d="M1135 3680 c3 -5 8 -10 11 -10 2 0 4 5 4 10 0 6 -5 10 -11 10 -5 0
-7 -4 -4 -10z"/>
<path d="M1170 3641 c0 -10 7 -21 15 -25 16 -6 19 3 9 28 -8 22 -24 20 -24 -3z"/>
<path d="M2198 3623 c6 -2 18 -2 25 0 6 3 1 5 -13 5 -14 0 -19 -2 -12 -5z"/>
<path d="M1266 3602 c-9 -14 14 -19 54 -11 19 3 26 7 15 8 -11 1 -30 4 -41 7
-12 3 -24 1 -28 -4z"/>
<path d="M1382 3582 c-9 -6 -5 -12 13 -20 32 -15 45 -15 25 -1 -12 9 -11 10 8
6 13 -3 20 -1 16 5 -3 5 -17 7 -31 3 -16 -4 -22 -2 -18 5 7 12 4 12 -13 2z"/>
<path d="M1260 3571 c0 -5 7 -12 16 -15 14 -5 15 -4 4 9 -14 17 -20 19 -20 6z"/>
<path d="M1578 3542 c18 -10 29 -22 25 -27 -4 -4 -3 -5 3 -2 7 4 28 0 48 -8
45 -19 52 -19 35 2 -19 22 -88 53 -119 52 -24 0 -23 -1 8 -17z"/>
<path d="M1598 3493 c7 -3 16 -2 19 1 4 3 -2 6 -13 5 -11 0 -14 -3 -6 -6z"/>
<path d="M2160 3360 c0 -5 5 -10 11 -10 5 0 7 5 4 10 -3 6 -8 10 -11 10 -2 0
-4 -4 -4 -10z"/>
<path d="M598 2233 c6 -2 18 -2 25 0 6 3 1 5 -13 5 -14 0 -19 -2 -12 -5z"/>
<path d="M705 2210 c3 -5 14 -10 24 -10 10 0 35 -7 54 -15 40 -17 67 -20 51
-7 -9 9 -109 42 -126 42 -5 0 -6 -4 -3 -10z"/>
<path d="M585 2176 c35 -15 85 -28 85 -22 0 4 -95 36 -107 36 -4 -1 6 -7 22
-14z"/>
<path d="M1195 2170 c-3 -5 -1 -10 4 -10 6 0 11 5 11 10 0 6 -2 10 -4 10 -3 0
-8 -4 -11 -10z"/>
<path d="M1418 2163 c7 -3 16 -2 19 1 4 3 -2 6 -13 5 -11 0 -14 -3 -6 -6z"/>
<path d="M140 2130 c8 -5 20 -10 25 -10 6 0 3 5 -5 10 -8 5 -19 10 -25 10 -5
0 -3 -5 5 -10z"/>
<path d="M510 2130 c0 -5 5 -10 11 -10 5 0 7 5 4 10 -3 6 -8 10 -11 10 -2 0
-4 -4 -4 -10z"/>
<path d="M590 2117 c0 -5 -9 -7 -20 -4 -30 8 -24 -10 8 -21 15 -6 51 -20 81
-31 30 -11 57 -18 60 -16 2 3 -1 5 -9 5 -10 0 -10 3 -1 14 9 11 9 16 0 22 -8
4 -9 3 -5 -4 12 -20 -13 -13 -31 8 -10 11 -25 20 -35 20 -10 0 -18 4 -18 8 0
5 -7 9 -15 9 -8 0 -15 -5 -15 -10z"/>
<path d="M190 2116 c0 -2 7 -7 16 -10 8 -3 12 -2 9 4 -6 10 -25 14 -25 6z"/>
<path d="M1030 2110 c0 -4 10 -10 23 -14 31 -8 39 -7 33 3 -7 11 -56 21 -56
11z"/>
<path d="M1155 2100 c3 -5 13 -10 21 -10 8 0 12 5 9 10 -3 6 -13 10 -21 10 -8
0 -12 -4 -9 -10z"/>
<path d="M270 2086 c0 -2 9 -6 20 -9 11 -3 18 -1 14 4 -5 9 -34 13 -34 5z"/>
<path d="M320 2072 c0 -8 57 -42 71 -42 6 0 7 5 4 10 -3 6 0 10 9 10 8 0 22 3
31 6 9 4 15 3 14 -2 -6 -35 18 -46 41 -19 10 12 7 17 -16 26 -16 6 -47 9 -69
6 -22 -2 -50 0 -62 4 -13 5 -23 5 -23 1z"/>
<path d="M730 2061 c0 -7 80 -41 95 -41 1 0 2 6 2 14 0 9 -18 19 -43 25 -52
13 -54 13 -54 2z"/>
<path d="M543 2036 c-4 -8 -17 -15 -27 -17 -12 -3 20 -19 78 -42 54 -21 103
-36 110 -34 6 2 17 -2 24 -10 7 -7 25 -16 40 -20 15 -3 30 -10 33 -16 4 -6 15
-4 29 6 21 15 21 15 -19 22 -37 6 -80 35 -52 35 26 0 -1 18 -36 25 -21 3 -48
9 -60 12 -17 4 -23 1 -23 -11 0 -18 -8 -20 -30 -6 -13 8 -12 10 3 10 28 0 19
18 -13 25 -16 4 -33 11 -37 17 -4 8 0 9 13 3 25 -10 106 -26 111 -21 6 5 -93
36 -116 36 -11 0 -24 -6 -28 -14z m134 -62 c-3 -3 -12 -4 -19 -1 -8 3 -5 6 6
6 11 1 17 -2 13 -5z"/>
<path d="M715 2000 c11 -5 27 -9 35 -9 9 0 8 4 -5 9 -11 5 -27 9 -35 9 -9 0
-8 -4 5 -9z"/>
<path d="M1520 1990 c0 -5 5 -10 10 -10 6 0 10 5 10 10 0 6 -4 10 -10 10 -5 0
-10 -4 -10 -10z"/>
<path d="M116 1976 c3 -9 11 -16 16 -16 13 0 5 23 -10 28 -7 2 -10 -2 -6 -12z"/>
<path d="M835 1960 c3 -5 1 -10 -6 -10 -7 0 -10 -2 -7 -5 8 -9 38 6 32 16 -3
5 -10 9 -15 9 -6 0 -7 -4 -4 -10z"/>
<path d="M830 1880 c0 -5 7 -10 16 -10 8 0 12 5 9 10 -3 6 -10 10 -16 10 -5 0
-9 -4 -9 -10z"/>
<path d="M1485 1880 c-3 -5 3 -10 15 -10 12 0 18 5 15 10 -3 6 -10 10 -15 10
-5 0 -12 -4 -15 -10z"/>
<path d="M898 1859 c12 -7 22 -16 22 -21 0 -5 10 -8 23 -6 12 2 21 -1 20 -7
-1 -5 12 -10 27 -10 22 0 26 3 17 11 -10 9 -31 16 -116 40 -9 3 -6 -1 7 -7z"/>
<path d="M1250 1860 c8 -5 20 -10 25 -10 6 0 3 5 -5 10 -8 5 -19 10 -25 10 -5
0 -3 -5 5 -10z"/>
<path d="M1560 1849 c14 -6 44 -21 68 -32 23 -11 45 -17 48 -14 4 4 0 9 -9 13
-9 3 -13 12 -10 20 3 8 1 14 -3 14 -5 1 -34 3 -64 5 -46 4 -51 3 -30 -6z"/>
<path d="M593 1790 c15 -12 31 -19 34 -16 9 9 -7 22 -37 31 -25 7 -25 7 3 -15z"/>
<path d="M643 1763 c4 -3 25 -14 47 -24 48 -22 54 -8 6 15 -34 16 -65 22 -53
9z"/>
<path d="M820 1700 c0 -5 7 -10 15 -10 8 0 15 5 15 10 0 6 -7 10 -15 10 -8 0
-15 -4 -15 -10z"/>
<path d="M775 1690 c3 -5 11 -10 16 -10 6 0 7 5 4 10 -3 6 -11 10 -16 10 -6 0
-7 -4 -4 -10z"/>
<path d="M0 1671 c0 -28 17 -35 37 -16 14 14 14 18 2 26 -23 14 -39 10 -39
-10z"/>
<path d="M900 1670 c0 -5 5 -10 11 -10 5 0 7 5 4 10 -3 6 -8 10 -11 10 -2 0
-4 -4 -4 -10z"/>
<path d="M950 1660 c0 -4 10 -10 23 -14 31 -8 39 -7 33 3 -7 11 -56 21 -56 11z"/>
<path d="M76 1645 c14 -11 16 -15 4 -15 -12 0 -11 -3 3 -11 9 -6 27 -7 40 -4
17 5 19 4 7 -4 -13 -10 -13 -12 0 -21 13 -9 13 -10 0 -11 -8 -1 1 -5 20 -9 19
-4 43 -11 53 -15 10 -4 17 -3 17 4 0 6 -11 13 -25 17 -31 8 -55 34 -31 34 9 0
16 4 16 9 0 11 -25 21 -56 21 -13 0 -24 5 -24 10 0 6 -10 10 -22 10 -21 0 -21
0 -2 -15z"/>
<path d="M56 1601 c5 -5 20 -12 34 -16 24 -7 24 -7 5 9 -21 16 -56 23 -39 7z"/>
<path d="M206 1602 c-3 -6 3 -12 15 -15 12 -3 19 -1 16 6 -5 15 -24 20 -31 9z"/>
<path d="M1337 1584 c-9 -10 2 -24 18 -24 9 0 12 6 9 15 -6 16 -17 19 -27 9z"/>
<path d="M245 1551 c-7 -12 12 -24 25 -16 11 7 4 25 -10 25 -5 0 -11 -4 -15
-9z"/>
<path d="M290 1555 c0 -7 30 -13 34 -7 3 4 -4 9 -15 9 -10 1 -19 0 -19 -2z"/>
<path d="M0 1527 c0 -26 16 -37 56 -37 13 0 24 -4 24 -8 0 -12 121 -66 147
-66 12 0 20 -4 17 -8 -3 -4 2 -8 11 -8 10 0 15 6 13 18 -3 11 -12 16 -27 14
-19 -2 -22 1 -18 19 5 18 2 20 -19 15 -14 -4 -24 -2 -24 4 0 5 6 10 13 10 28
1 -64 38 -135 54 -14 3 -33 9 -42 12 -12 5 -16 0 -16 -19z m125 -27 c3 -5 2
-10 -4 -10 -5 0 -13 5 -16 10 -3 6 -2 10 4 10 5 0 13 -4 16 -10z"/>
<path d="M718 1465 c31 -26 48 -33 37 -15 -3 6 0 10 7 10 7 0 0 7 -16 15 -45
24 -61 18 -28 -10z"/>
<path d="M900 1450 c0 -5 5 -10 10 -10 6 0 10 5 10 10 0 6 -4 10 -10 10 -5 0
-10 -4 -10 -10z"/>
<path d="M635 1435 c11 -9 27 -20 35 -25 12 -7 13 -11 3 -21 -7 -7 -13 -26
-13 -42 0 -29 25 -35 25 -6 0 8 4 19 8 25 10 16 -3 74 -17 74 -6 0 -22 3 -36
6 -25 5 -25 5 -5 -11z"/>
<path d="M296 1413 c-12 -12 -6 -33 9 -33 8 0 15 6 15 14 0 17 -14 28 -24 19z"/>
<path d="M90 1380 c-12 -8 -10 -10 10 -10 14 0 36 -3 50 -6 17 -5 22 -3 15 3
-16 16 -59 23 -75 13z"/>
<path d="M338 1383 c7 -3 16 -2 19 1 4 3 -2 6 -13 5 -11 0 -14 -3 -6 -6z"/>
<path d="M375 1374 c-23 -10 -25 -13 -10 -14 28 -1 89 -23 110 -40 15 -13 19
-12 31 5 17 24 15 25 -36 30 -23 2 -47 10 -53 18 -10 12 -17 13 -42 1z"/>
<path d="M212 1328 c5 -15 28 -23 28 -10 0 5 -7 13 -16 16 -10 4 -14 1 -12 -6z"/>
<path d="M556 1315 c10 -8 26 -14 34 -14 11 0 10 3 -4 14 -11 8 -27 15 -35 15
-11 0 -10 -4 5 -15z"/>
<path d="M660 1270 c0 -5 5 -10 11 -10 5 0 7 5 4 10 -3 6 -8 10 -11 10 -2 0
-4 -4 -4 -10z"/>
<path d="M140 1250 c0 -5 5 -10 11 -10 5 0 7 5 4 10 -3 6 -8 10 -11 10 -2 0
-4 -4 -4 -10z"/>
<path d="M660 1240 c0 -5 5 -10 11 -10 5 0 7 5 4 10 -3 6 -8 10 -11 10 -2 0
-4 -4 -4 -10z"/>
<path d="M444 1226 c19 -9 24 -15 15 -18 -10 -3 -7 -8 10 -17 15 -8 27 -9 33
-3 10 10 -49 53 -73 51 -8 0 -1 -6 15 -13z"/>
<path d="M697 1234 c-9 -9 4 -34 18 -34 7 0 19 8 26 17 10 11 10 14 2 9 -7 -4
-13 -2 -13 3 0 12 -23 15 -33 5z"/>
<path d="M227 1209 c7 -7 15 -10 18 -7 3 3 -2 9 -12 12 -14 6 -15 5 -6 -5z"/>
<path d="M270 1186 c0 -9 5 -16 10 -16 6 0 10 4 10 9 0 6 -4 13 -10 16 -5 3
-10 -1 -10 -9z"/>
<path d="M795 1190 c3 -5 8 -10 11 -10 2 0 4 5 4 10 0 6 -5 10 -11 10 -5 0 -7
-4 -4 -10z"/>
<path d="M525 1180 c3 -5 14 -10 23 -10 15 0 15 2 2 10 -20 13 -33 13 -25 0z"/>
<path d="M631 1124 c0 -11 3 -14 6 -6 3 7 2 16 -1 19 -3 4 -6 -2 -5 -13z"/>
<path d="M448 1108 c5 -5 16 -8 23 -6 8 3 3 7 -10 11 -17 4 -21 3 -13 -5z"/>
<path d="M666 1104 c-4 -9 -4 -19 -1 -22 3 -3 5 0 5 7 0 8 7 10 20 6 24 -7 27
10 4 19 -21 8 -21 8 -28 -10z"/>
<path d="M1344 1105 c11 -8 27 -14 35 -14 13 1 12 2 -1 6 -10 2 -18 9 -18 14
0 5 -8 9 -17 9 -16 -1 -16 -2 1 -15z"/>
<path d="M740 1103 c0 -9 33 -32 69 -48 28 -12 36 -13 42 -3 6 9 -4 19 -29 32
-37 19 -82 30 -82 19z"/>
<path d="M465 1070 c3 -5 8 -10 11 -10 2 0 4 5 4 10 0 6 -5 10 -11 10 -5 0 -7
-4 -4 -10z"/>
<path d="M915 990 c3 -5 8 -10 11 -10 2 0 4 5 4 10 0 6 -5 10 -11 10 -5 0 -7
-4 -4 -10z"/>
<path d="M857 969 c7 -7 15 -10 18 -7 3 3 -2 9 -12 12 -14 6 -15 5 -6 -5z"/>
</g>
</svg>
